<svg width="23" height="27" viewBox="0 0 23 27" fill="none" xmlns="http://www.w3.org/2000/svg">
<path d="M21.1172 6.85938H18.1413C17.7534 3.56455 14.9442 1 11.5469 1C8.14956 1 5.34038 3.56455 4.95244 6.85938H1.97656C1.43721 6.85938 1 7.29658 1 7.83594V25.0234C1 25.5628 1.43721 26 1.97656 26H21.1172C21.6565 26 22.0938 25.5628 22.0938 25.0234V7.83594C22.0938 7.29658 21.6565 6.85938 21.1172 6.85938ZM11.5469 2.95312C13.8654 2.95312 15.7958 4.64526 16.1689 6.85938H6.92485C7.2979 4.64526 9.22832 2.95312 11.5469 2.95312ZM20.1406 24.0469H2.95312V8.8125H4.90625V11.7422C4.90625 12.2815 5.34346 12.7188 5.88281 12.7188C6.42217 12.7188 6.85938 12.2815 6.85938 11.7422V8.8125H16.2344V11.7422C16.2344 12.2815 16.6716 12.7188 17.2109 12.7188C17.7503 12.7188 18.1875 12.2815 18.1875 11.7422V8.8125H20.1406V24.0469Z" fill="black" stroke="white"/>
</svg>
