<svg width="305" height="17" viewBox="0 0 305 17" fill="none" xmlns="http://www.w3.org/2000/svg">
<path d="M0.504 13V1.8H5.112C6.104 1.8 6.952 1.96 7.656 2.28C8.37067 2.6 8.92 3.05867 9.304 3.656C9.688 4.25333 9.88 4.96267 9.88 5.784C9.88 6.60533 9.688 7.31467 9.304 7.912C8.92 8.50933 8.37067 8.968 7.656 9.288C6.952 9.608 6.104 9.768 5.112 9.768H1.656L2.584 8.792V13H0.504ZM2.584 9.016L1.656 8.008H5.016C5.93333 8.008 6.62133 7.816 7.08 7.432C7.54933 7.03733 7.784 6.488 7.784 5.784C7.784 5.06933 7.54933 4.52 7.08 4.136C6.62133 3.752 5.93333 3.56 5.016 3.56H1.656L2.584 2.536V9.016ZM11.687 13V4.456H13.591V6.808L13.367 6.12C13.623 5.544 14.023 5.10667 14.567 4.808C15.1217 4.50933 15.8097 4.36 16.631 4.36V6.264C16.5457 6.24267 16.4657 6.232 16.391 6.232C16.3163 6.22133 16.2417 6.216 16.167 6.216C15.4097 6.216 14.807 6.44 14.359 6.888C13.911 7.32533 13.687 7.98133 13.687 8.856V13H11.687ZM22.0895 13.112C21.2148 13.112 20.4362 12.9253 19.7535 12.552C19.0708 12.168 18.5322 11.6453 18.1375 10.984C17.7428 10.3227 17.5455 9.57067 17.5455 8.728C17.5455 7.87467 17.7428 7.12267 18.1375 6.472C18.5322 5.81067 19.0708 5.29333 19.7535 4.92C20.4362 4.54667 21.2148 4.36 22.0895 4.36C22.9748 4.36 23.7588 4.54667 24.4415 4.92C25.1348 5.29333 25.6735 5.80533 26.0575 6.456C26.4522 7.10667 26.6495 7.864 26.6495 8.728C26.6495 9.57067 26.4522 10.3227 26.0575 10.984C25.6735 11.6453 25.1348 12.168 24.4415 12.552C23.7588 12.9253 22.9748 13.112 22.0895 13.112ZM22.0895 11.4C22.5802 11.4 23.0175 11.2933 23.4015 11.08C23.7855 10.8667 24.0842 10.5573 24.2975 10.152C24.5215 9.74667 24.6335 9.272 24.6335 8.728C24.6335 8.17333 24.5215 7.69867 24.2975 7.304C24.0842 6.89867 23.7855 6.58933 23.4015 6.376C23.0175 6.16267 22.5855 6.056 22.1055 6.056C21.6148 6.056 21.1775 6.16267 20.7935 6.376C20.4202 6.58933 20.1215 6.89867 19.8975 7.304C19.6735 7.69867 19.5615 8.17333 19.5615 8.728C19.5615 9.272 19.6735 9.74667 19.8975 10.152C20.1215 10.5573 20.4202 10.8667 20.7935 11.08C21.1775 11.2933 21.6095 11.4 22.0895 11.4ZM28.834 13V3.976C28.834 3.08 29.0953 2.36533 29.618 1.832C30.1513 1.288 30.9087 1.016 31.89 1.016C32.242 1.016 32.5727 1.05333 32.882 1.128C33.202 1.20267 33.4687 1.32 33.682 1.48L33.138 2.984C32.9887 2.86667 32.818 2.78133 32.626 2.728C32.434 2.664 32.2367 2.632 32.034 2.632C31.618 2.632 31.3033 2.74933 31.09 2.984C30.8767 3.208 30.77 3.54933 30.77 4.008V4.968L30.834 5.864V13H28.834ZM27.426 6.12V4.52H33.122V6.12H27.426ZM38.3593 13.112C37.4099 13.112 36.5779 12.9253 35.8633 12.552C35.1593 12.168 34.6099 11.6453 34.2153 10.984C33.8313 10.3227 33.6393 9.57067 33.6393 8.728C33.6393 7.87467 33.8259 7.12267 34.1993 6.472C34.5833 5.81067 35.1059 5.29333 35.7673 4.92C36.4393 4.54667 37.2019 4.36 38.0553 4.36C38.8873 4.36 39.6286 4.54133 40.2793 4.904C40.9299 5.26667 41.4419 5.77867 41.8153 6.44C42.1886 7.10133 42.3753 7.88 42.3753 8.776C42.3753 8.86133 42.3699 8.95733 42.3593 9.064C42.3593 9.17067 42.3539 9.272 42.3433 9.368H35.2233V8.04H41.2873L40.5033 8.456C40.5139 7.96533 40.4126 7.53333 40.1993 7.16C39.9859 6.78667 39.6926 6.49333 39.3193 6.28C38.9566 6.06667 38.5353 5.96 38.0553 5.96C37.5646 5.96 37.1326 6.06667 36.7593 6.28C36.3966 6.49333 36.1086 6.792 35.8953 7.176C35.6926 7.54933 35.5913 7.992 35.5913 8.504V8.824C35.5913 9.336 35.7086 9.78933 35.9433 10.184C36.1779 10.5787 36.5086 10.8827 36.9353 11.096C37.3619 11.3093 37.8526 11.416 38.4073 11.416C38.8873 11.416 39.3193 11.3413 39.7033 11.192C40.0873 11.0427 40.4286 10.808 40.7273 10.488L41.7993 11.72C41.4153 12.168 40.9299 12.5147 40.3433 12.76C39.7673 12.9947 39.1059 13.112 38.3593 13.112ZM46.9364 13.112C46.2217 13.112 45.5337 13.0213 44.8724 12.84C44.2217 12.648 43.7044 12.4187 43.3204 12.152L44.0884 10.632C44.4724 10.8773 44.931 11.08 45.4644 11.24C45.9977 11.4 46.531 11.48 47.0644 11.48C47.6937 11.48 48.147 11.3947 48.4244 11.224C48.7124 11.0533 48.8564 10.824 48.8564 10.536C48.8564 10.3013 48.7604 10.1253 48.5684 10.008C48.3764 9.88 48.1257 9.784 47.8164 9.72C47.507 9.656 47.1604 9.59733 46.7764 9.544C46.403 9.49067 46.0244 9.42133 45.6404 9.336C45.267 9.24 44.9257 9.10667 44.6164 8.936C44.307 8.75467 44.0564 8.51467 43.8644 8.216C43.6724 7.91733 43.5764 7.52267 43.5764 7.032C43.5764 6.488 43.731 6.01867 44.0404 5.624C44.3497 5.21867 44.7817 4.90933 45.3364 4.696C45.9017 4.472 46.5684 4.36 47.3364 4.36C47.9124 4.36 48.4937 4.424 49.0804 4.552C49.667 4.68 50.1524 4.86133 50.5364 5.096L49.7684 6.616C49.363 6.37067 48.9524 6.20533 48.5364 6.12C48.131 6.024 47.7257 5.976 47.3204 5.976C46.7124 5.976 46.259 6.06667 45.9604 6.248C45.6724 6.42933 45.5284 6.65867 45.5284 6.936C45.5284 7.192 45.6244 7.384 45.8164 7.512C46.0084 7.64 46.259 7.74133 46.5684 7.816C46.8777 7.89067 47.219 7.95467 47.5924 8.008C47.9764 8.05067 48.355 8.12 48.7284 8.216C49.1017 8.312 49.443 8.44533 49.7524 8.616C50.0724 8.776 50.3284 9.00533 50.5204 9.304C50.7124 9.60267 50.8084 9.992 50.8084 10.472C50.8084 11.0053 50.6484 11.4693 50.3284 11.864C50.019 12.2587 49.5764 12.568 49.0004 12.792C48.4244 13.0053 47.7364 13.112 46.9364 13.112ZM55.1708 13.112C54.4561 13.112 53.7681 13.0213 53.1068 12.84C52.4561 12.648 51.9388 12.4187 51.5548 12.152L52.3228 10.632C52.7068 10.8773 53.1654 11.08 53.6988 11.24C54.2321 11.4 54.7654 11.48 55.2988 11.48C55.9281 11.48 56.3814 11.3947 56.6588 11.224C56.9468 11.0533 57.0908 10.824 57.0908 10.536C57.0908 10.3013 56.9948 10.1253 56.8028 10.008C56.6108 9.88 56.3601 9.784 56.0508 9.72C55.7414 9.656 55.3948 9.59733 55.0108 9.544C54.6374 9.49067 54.2588 9.42133 53.8748 9.336C53.5014 9.24 53.1601 9.10667 52.8508 8.936C52.5414 8.75467 52.2908 8.51467 52.0988 8.216C51.9068 7.91733 51.8108 7.52267 51.8108 7.032C51.8108 6.488 51.9654 6.01867 52.2747 5.624C52.5841 5.21867 53.0161 4.90933 53.5707 4.696C54.1361 4.472 54.8028 4.36 55.5708 4.36C56.1468 4.36 56.7281 4.424 57.3148 4.552C57.9014 4.68 58.3868 4.86133 58.7708 5.096L58.0028 6.616C57.5974 6.37067 57.1868 6.20533 56.7708 6.12C56.3654 6.024 55.9601 5.976 55.5548 5.976C54.9468 5.976 54.4934 6.06667 54.1948 6.248C53.9068 6.42933 53.7628 6.65867 53.7628 6.936C53.7628 7.192 53.8588 7.384 54.0508 7.512C54.2428 7.64 54.4934 7.74133 54.8028 7.816C55.1121 7.89067 55.4534 7.95467 55.8268 8.008C56.2108 8.05067 56.5894 8.12 56.9628 8.216C57.3361 8.312 57.6774 8.44533 57.9868 8.616C58.3068 8.776 58.5628 9.00533 58.7548 9.304C58.9468 9.60267 59.0428 9.992 59.0428 10.472C59.0428 11.0053 58.8828 11.4693 58.5628 11.864C58.2534 12.2587 57.8108 12.568 57.2348 12.792C56.6588 13.0053 55.9708 13.112 55.1708 13.112ZM60.7651 13V4.456H62.7651V13H60.7651ZM61.7731 3.048C61.3998 3.048 61.0905 2.93067 60.8451 2.696C60.6105 2.46133 60.4931 2.17867 60.4931 1.848C60.4931 1.50667 60.6105 1.224 60.8451 0.999999C61.0905 0.765333 61.3998 0.648 61.7731 0.648C62.1465 0.648 62.4505 0.76 62.6851 0.983999C62.9305 1.19733 63.0531 1.46933 63.0531 1.8C63.0531 2.152 62.9358 2.45067 62.7011 2.696C62.4665 2.93067 62.1571 3.048 61.7731 3.048ZM69.2301 13.112C68.3555 13.112 67.5768 12.9253 66.8941 12.552C66.2115 12.168 65.6728 11.6453 65.2781 10.984C64.8835 10.3227 64.6861 9.57067 64.6861 8.728C64.6861 7.87467 64.8835 7.12267 65.2781 6.472C65.6728 5.81067 66.2115 5.29333 66.8941 4.92C67.5768 4.54667 68.3555 4.36 69.2301 4.36C70.1155 4.36 70.8995 4.54667 71.5821 4.92C72.2755 5.29333 72.8141 5.80533 73.1981 6.456C73.5928 7.10667 73.7901 7.864 73.7901 8.728C73.7901 9.57067 73.5928 10.3227 73.1981 10.984C72.8141 11.6453 72.2755 12.168 71.5821 12.552C70.8995 12.9253 70.1155 13.112 69.2301 13.112ZM69.2301 11.4C69.7208 11.4 70.1581 11.2933 70.5421 11.08C70.9261 10.8667 71.2248 10.5573 71.4381 10.152C71.6621 9.74667 71.7741 9.272 71.7741 8.728C71.7741 8.17333 71.6621 7.69867 71.4381 7.304C71.2248 6.89867 70.9261 6.58933 70.5421 6.376C70.1581 6.16267 69.7261 6.056 69.2461 6.056C68.7555 6.056 68.3181 6.16267 67.9341 6.376C67.5608 6.58933 67.2621 6.89867 67.0381 7.304C66.8141 7.69867 66.7021 8.17333 66.7021 8.728C66.7021 9.272 66.8141 9.74667 67.0381 10.152C67.2621 10.5573 67.5608 10.8667 67.9341 11.08C68.3181 11.2933 68.7501 11.4 69.2301 11.4ZM80.5506 4.36C81.2333 4.36 81.8413 4.49333 82.3746 4.76C82.9186 5.02667 83.3453 5.43733 83.6546 5.992C83.964 6.536 84.1186 7.24 84.1186 8.104V13H82.1186V8.36C82.1186 7.60267 81.9373 7.03733 81.5746 6.664C81.2226 6.29067 80.7266 6.104 80.0866 6.104C79.6173 6.104 79.2013 6.2 78.8386 6.392C78.476 6.584 78.1933 6.872 77.9906 7.256C77.7986 7.62933 77.7026 8.104 77.7026 8.68V13H75.7026V4.456H77.6066V6.76L77.2706 6.056C77.5693 5.512 78.0013 5.096 78.5666 4.808C79.1426 4.50933 79.804 4.36 80.5506 4.36ZM91.9198 13V11.272L91.8078 10.904V7.88C91.8078 7.29333 91.6318 6.84 91.2798 6.52C90.9278 6.18933 90.3944 6.024 89.6798 6.024C89.1998 6.024 88.7251 6.09867 88.2558 6.248C87.7971 6.39733 87.4078 6.60533 87.0878 6.872L86.3038 5.416C86.7624 5.064 87.3064 4.80267 87.9358 4.632C88.5758 4.45067 89.2371 4.36 89.9198 4.36C91.1571 4.36 92.1118 4.65867 92.7838 5.256C93.4664 5.84267 93.8078 6.75467 93.8078 7.992V13H91.9198ZM89.2318 13.112C88.5918 13.112 88.0318 13.0053 87.5518 12.792C87.0718 12.568 86.6984 12.264 86.4318 11.88C86.1758 11.4853 86.0478 11.0427 86.0478 10.552C86.0478 10.072 86.1598 9.64 86.3838 9.256C86.6184 8.872 86.9971 8.568 87.5198 8.344C88.0424 8.12 88.7358 8.008 89.5998 8.008H92.0798V9.336H89.7438C89.0611 9.336 88.6024 9.448 88.3678 9.672C88.1331 9.88533 88.0158 10.152 88.0158 10.472C88.0158 10.8347 88.1598 11.1227 88.4478 11.336C88.7358 11.5493 89.1358 11.656 89.6478 11.656C90.1384 11.656 90.5758 11.544 90.9598 11.32C91.3544 11.096 91.6371 10.7653 91.8078 10.328L92.1438 11.528C91.9518 12.0293 91.6051 12.4187 91.1038 12.696C90.6131 12.9733 89.9891 13.112 89.2318 13.112ZM96.3745 13V1.128H98.3745V13H96.3745ZM105.613 13V1.8H107.693V11.24H113.549V13H105.613ZM115 13V4.456H117V13H115ZM116.008 3.048C115.634 3.048 115.325 2.93067 115.08 2.696C114.845 2.46133 114.728 2.17867 114.728 1.848C114.728 1.50667 114.845 1.224 115.08 0.999999C115.325 0.765333 115.634 0.648 116.008 0.648C116.381 0.648 116.685 0.76 116.92 0.983999C117.165 1.19733 117.288 1.46933 117.288 1.8C117.288 2.152 117.17 2.45067 116.936 2.696C116.701 2.93067 116.392 3.048 116.008 3.048ZM124.361 13.112C123.667 13.112 123.033 12.952 122.457 12.632C121.891 12.312 121.438 11.832 121.097 11.192C120.766 10.5413 120.601 9.72 120.601 8.728C120.601 7.72533 120.761 6.904 121.081 6.264C121.411 5.624 121.859 5.14933 122.424 4.84C122.99 4.52 123.635 4.36 124.361 4.36C125.203 4.36 125.945 4.54133 126.585 4.904C127.235 5.26667 127.747 5.77333 128.121 6.424C128.505 7.07467 128.697 7.84267 128.697 8.728C128.697 9.61333 128.505 10.3867 128.121 11.048C127.747 11.6987 127.235 12.2053 126.585 12.568C125.945 12.9307 125.203 13.112 124.361 13.112ZM119.625 16.104V4.456H121.529V6.472L121.465 8.744L121.625 11.016V16.104H119.625ZM124.137 11.4C124.617 11.4 125.043 11.2933 125.417 11.08C125.801 10.8667 126.105 10.5573 126.329 10.152C126.553 9.74667 126.665 9.272 126.665 8.728C126.665 8.17333 126.553 7.69867 126.329 7.304C126.105 6.89867 125.801 6.58933 125.417 6.376C125.043 6.16267 124.617 6.056 124.137 6.056C123.657 6.056 123.225 6.16267 122.841 6.376C122.457 6.58933 122.153 6.89867 121.929 7.304C121.705 7.69867 121.593 8.17333 121.593 8.728C121.593 9.272 121.705 9.74667 121.929 10.152C122.153 10.5573 122.457 10.8667 122.841 11.08C123.225 11.2933 123.657 11.4 124.137 11.4ZM140.391 13.16C139.538 13.16 138.743 13.0213 138.007 12.744C137.282 12.456 136.647 12.056 136.103 11.544C135.57 11.0213 135.154 10.408 134.855 9.704C134.556 9 134.407 8.232 134.407 7.4C134.407 6.568 134.556 5.8 134.855 5.096C135.154 4.392 135.575 3.784 136.119 3.272C136.663 2.74933 137.298 2.34933 138.023 2.072C138.748 1.784 139.543 1.64 140.407 1.64C141.324 1.64 142.162 1.8 142.919 2.12C143.676 2.42933 144.316 2.89333 144.839 3.512L143.495 4.776C143.09 4.33867 142.636 4.01333 142.135 3.8C141.634 3.576 141.09 3.464 140.503 3.464C139.916 3.464 139.378 3.56 138.887 3.752C138.407 3.944 137.986 4.216 137.623 4.568C137.271 4.92 136.994 5.336 136.791 5.816C136.599 6.296 136.503 6.824 136.503 7.4C136.503 7.976 136.599 8.504 136.791 8.984C136.994 9.464 137.271 9.88 137.623 10.232C137.986 10.584 138.407 10.856 138.887 11.048C139.378 11.24 139.916 11.336 140.503 11.336C141.09 11.336 141.634 11.2293 142.135 11.016C142.636 10.792 143.09 10.456 143.495 10.008L144.839 11.288C144.316 11.896 143.676 12.36 142.919 12.68C142.162 13 141.319 13.16 140.391 13.16ZM146.64 13V4.456H148.544V6.808L148.32 6.12C148.576 5.544 148.976 5.10667 149.52 4.808C150.075 4.50933 150.763 4.36 151.584 4.36V6.264C151.499 6.24267 151.419 6.232 151.344 6.232C151.269 6.22133 151.195 6.216 151.12 6.216C150.363 6.216 149.76 6.44 149.312 6.888C148.864 7.32533 148.64 7.98133 148.64 8.856V13H146.64ZM157.219 13.112C156.269 13.112 155.437 12.9253 154.723 12.552C154.019 12.168 153.469 11.6453 153.075 10.984C152.691 10.3227 152.499 9.57067 152.499 8.728C152.499 7.87467 152.685 7.12267 153.059 6.472C153.443 5.81067 153.965 5.29333 154.627 4.92C155.299 4.54667 156.061 4.36 156.915 4.36C157.747 4.36 158.488 4.54133 159.139 4.904C159.789 5.26667 160.301 5.77867 160.675 6.44C161.048 7.10133 161.235 7.88 161.235 8.776C161.235 8.86133 161.229 8.95733 161.219 9.064C161.219 9.17067 161.213 9.272 161.203 9.368H154.083V8.04H160.147L159.363 8.456C159.373 7.96533 159.272 7.53333 159.059 7.16C158.845 6.78667 158.552 6.49333 158.179 6.28C157.816 6.06667 157.395 5.96 156.915 5.96C156.424 5.96 155.992 6.06667 155.619 6.28C155.256 6.49333 154.968 6.792 154.755 7.176C154.552 7.54933 154.451 7.992 154.451 8.504V8.824C154.451 9.336 154.568 9.78933 154.803 10.184C155.037 10.5787 155.368 10.8827 155.795 11.096C156.221 11.3093 156.712 11.416 157.267 11.416C157.747 11.416 158.179 11.3413 158.563 11.192C158.947 11.0427 159.288 10.808 159.587 10.488L160.659 11.72C160.275 12.168 159.789 12.5147 159.203 12.76C158.627 12.9947 157.965 13.112 157.219 13.112ZM168.185 13V11.272L168.073 10.904V7.88C168.073 7.29333 167.897 6.84 167.545 6.52C167.193 6.18933 166.66 6.024 165.945 6.024C165.465 6.024 164.991 6.09867 164.521 6.248C164.063 6.39733 163.673 6.60533 163.353 6.872L162.569 5.416C163.028 5.064 163.572 4.80267 164.201 4.632C164.841 4.45067 165.503 4.36 166.185 4.36C167.423 4.36 168.377 4.65867 169.049 5.256C169.732 5.84267 170.073 6.75467 170.073 7.992V13H168.185ZM165.497 13.112C164.857 13.112 164.297 13.0053 163.817 12.792C163.337 12.568 162.964 12.264 162.697 11.88C162.441 11.4853 162.313 11.0427 162.313 10.552C162.313 10.072 162.425 9.64 162.649 9.256C162.884 8.872 163.263 8.568 163.785 8.344C164.308 8.12 165.001 8.008 165.865 8.008H168.345V9.336H166.009C165.327 9.336 164.868 9.448 164.633 9.672C164.399 9.88533 164.281 10.152 164.281 10.472C164.281 10.8347 164.425 11.1227 164.713 11.336C165.001 11.5493 165.401 11.656 165.913 11.656C166.404 11.656 166.841 11.544 167.225 11.32C167.62 11.096 167.903 10.7653 168.073 10.328L168.409 11.528C168.217 12.0293 167.871 12.4187 167.369 12.696C166.879 12.9733 166.255 13.112 165.497 13.112ZM183.424 4.36C184.107 4.36 184.709 4.49333 185.232 4.76C185.765 5.02667 186.181 5.43733 186.48 5.992C186.779 6.536 186.928 7.24 186.928 8.104V13H184.928V8.36C184.928 7.60267 184.763 7.03733 184.432 6.664C184.101 6.29067 183.627 6.104 183.008 6.104C182.571 6.104 182.181 6.2 181.84 6.392C181.509 6.584 181.248 6.86667 181.056 7.24C180.875 7.61333 180.784 8.088 180.784 8.664V13H178.784V8.36C178.784 7.60267 178.619 7.03733 178.288 6.664C177.957 6.29067 177.483 6.104 176.864 6.104C176.427 6.104 176.037 6.2 175.696 6.392C175.365 6.584 175.104 6.86667 174.912 7.24C174.731 7.61333 174.64 8.088 174.64 8.664V13H172.64V4.456H174.544V6.728L174.208 6.056C174.496 5.50133 174.912 5.08 175.456 4.792C176.011 4.504 176.64 4.36 177.344 4.36C178.144 4.36 178.837 4.55733 179.424 4.952C180.021 5.34667 180.416 5.944 180.608 6.744L179.824 6.472C180.101 5.832 180.56 5.32 181.2 4.936C181.84 4.552 182.581 4.36 183.424 4.36ZM194.098 13V1.8H198.706C199.698 1.8 200.546 1.96 201.25 2.28C201.964 2.6 202.514 3.05867 202.898 3.656C203.282 4.25333 203.474 4.96267 203.474 5.784C203.474 6.60533 203.282 7.31467 202.898 7.912C202.514 8.50933 201.964 8.968 201.25 9.288C200.546 9.608 199.698 9.768 198.706 9.768H195.25L196.178 8.792V13H194.098ZM196.178 9.016L195.25 8.008H198.61C199.527 8.008 200.215 7.816 200.674 7.432C201.143 7.03733 201.378 6.488 201.378 5.784C201.378 5.06933 201.143 4.52 200.674 4.136C200.215 3.752 199.527 3.56 198.61 3.56H195.25L196.178 2.536V9.016ZM205.515 13V1.128H207.515V13H205.515ZM213.756 13.112C213.031 13.112 212.391 12.9787 211.836 12.712C211.281 12.4347 210.849 12.0187 210.54 11.464C210.231 10.8987 210.076 10.1893 210.076 9.336V4.456H212.076V9.064C212.076 9.832 212.247 10.408 212.588 10.792C212.94 11.1653 213.436 11.352 214.076 11.352C214.545 11.352 214.951 11.256 215.292 11.064C215.644 10.872 215.916 10.584 216.108 10.2C216.311 9.816 216.412 9.34133 216.412 8.776V4.456H218.412V13H216.508V10.696L216.844 11.4C216.556 11.9547 216.135 12.3813 215.58 12.68C215.025 12.968 214.417 13.112 213.756 13.112ZM231.815 4.36C232.497 4.36 233.1 4.49333 233.623 4.76C234.156 5.02667 234.572 5.43733 234.871 5.992C235.169 6.536 235.319 7.24 235.319 8.104V13H233.319V8.36C233.319 7.60267 233.153 7.03733 232.823 6.664C232.492 6.29067 232.017 6.104 231.399 6.104C230.961 6.104 230.572 6.2 230.231 6.392C229.9 6.584 229.639 6.86667 229.447 7.24C229.265 7.61333 229.175 8.088 229.175 8.664V13H227.175V8.36C227.175 7.60267 227.009 7.03733 226.679 6.664C226.348 6.29067 225.873 6.104 225.255 6.104C224.817 6.104 224.428 6.2 224.087 6.392C223.756 6.584 223.495 6.86667 223.303 7.24C223.121 7.61333 223.031 8.088 223.031 8.664V13H221.031V4.456H222.935V6.728L222.599 6.056C222.887 5.50133 223.303 5.08 223.847 4.792C224.401 4.504 225.031 4.36 225.735 4.36C226.535 4.36 227.228 4.55733 227.815 4.952C228.412 5.34667 228.807 5.944 228.999 6.744L228.215 6.472C228.492 5.832 228.951 5.32 229.591 4.936C230.231 4.552 230.972 4.36 231.815 4.36ZM242.611 13.112C241.917 13.112 241.283 12.952 240.707 12.632C240.141 12.312 239.688 11.832 239.347 11.192C239.016 10.5413 238.851 9.72 238.851 8.728C238.851 7.72533 239.011 6.904 239.331 6.264C239.661 5.624 240.109 5.14933 240.674 4.84C241.24 4.52 241.885 4.36 242.611 4.36C243.453 4.36 244.195 4.54133 244.835 4.904C245.485 5.26667 245.997 5.77333 246.371 6.424C246.755 7.07467 246.947 7.84267 246.947 8.728C246.947 9.61333 246.755 10.3867 246.371 11.048C245.997 11.6987 245.485 12.2053 244.835 12.568C244.195 12.9307 243.453 13.112 242.611 13.112ZM237.875 16.104V4.456H239.779V6.472L239.715 8.744L239.875 11.016V16.104H237.875ZM242.387 11.4C242.867 11.4 243.293 11.2933 243.667 11.08C244.051 10.8667 244.355 10.5573 244.579 10.152C244.803 9.74667 244.915 9.272 244.915 8.728C244.915 8.17333 244.803 7.69867 244.579 7.304C244.355 6.89867 244.051 6.58933 243.667 6.376C243.293 6.16267 242.867 6.056 242.387 6.056C241.907 6.056 241.475 6.16267 241.091 6.376C240.707 6.58933 240.403 6.89867 240.179 7.304C239.955 7.69867 239.843 8.17333 239.843 8.728C239.843 9.272 239.955 9.74667 240.179 10.152C240.403 10.5573 240.707 10.8667 241.091 11.08C241.475 11.2933 241.907 11.4 242.387 11.4ZM256.689 13.16C255.91 13.16 255.212 13.032 254.593 12.776C253.974 12.52 253.489 12.168 253.137 11.72C252.785 11.272 252.609 10.7547 252.609 10.168C252.609 9.63467 252.726 9.15467 252.961 8.728C253.196 8.30133 253.569 7.896 254.081 7.512C254.593 7.11733 255.249 6.72267 256.049 6.328C256.678 6.01867 257.169 5.74667 257.521 5.512C257.884 5.27733 258.134 5.05333 258.273 4.84C258.422 4.62667 258.497 4.40267 258.497 4.168C258.497 3.848 258.385 3.592 258.161 3.4C257.937 3.19733 257.617 3.096 257.201 3.096C256.753 3.096 256.401 3.208 256.145 3.432C255.9 3.64533 255.777 3.928 255.777 4.28C255.777 4.46133 255.809 4.63733 255.873 4.808C255.948 4.97867 256.076 5.17067 256.257 5.384C256.438 5.59733 256.7 5.86933 257.041 6.2L262.961 11.88L261.857 13.176L255.457 7.032C255.094 6.68 254.801 6.35467 254.577 6.056C254.353 5.75733 254.193 5.46933 254.097 5.192C254.001 4.904 253.953 4.61067 253.953 4.312C253.953 3.78933 254.086 3.33067 254.353 2.936C254.62 2.53067 254.998 2.22133 255.489 2.008C255.98 1.784 256.55 1.672 257.201 1.672C257.809 1.672 258.332 1.77333 258.769 1.976C259.217 2.168 259.564 2.45067 259.809 2.824C260.065 3.18667 260.193 3.624 260.193 4.136C260.193 4.584 260.081 5 259.857 5.384C259.633 5.75733 259.281 6.11467 258.801 6.456C258.332 6.79733 257.702 7.15467 256.913 7.528C256.326 7.816 255.862 8.088 255.521 8.344C255.18 8.6 254.934 8.856 254.785 9.112C254.636 9.368 254.561 9.65067 254.561 9.96C254.561 10.2693 254.652 10.5413 254.833 10.776C255.025 11.0107 255.292 11.1973 255.633 11.336C255.974 11.464 256.374 11.528 256.833 11.528C257.516 11.528 258.134 11.3787 258.689 11.08C259.254 10.7707 259.729 10.312 260.113 9.704C260.497 9.096 260.774 8.344 260.945 7.448L262.561 7.976C262.337 9.05333 261.948 9.98133 261.393 10.76C260.849 11.528 260.177 12.12 259.377 12.536C258.577 12.952 257.681 13.16 256.689 13.16ZM274.36 13.16C273.507 13.16 272.712 13.0213 271.976 12.744C271.251 12.456 270.616 12.056 270.072 11.544C269.539 11.0213 269.123 10.408 268.824 9.704C268.525 9 268.376 8.232 268.376 7.4C268.376 6.568 268.525 5.8 268.824 5.096C269.123 4.392 269.544 3.784 270.088 3.272C270.632 2.74933 271.267 2.34933 271.992 2.072C272.717 1.784 273.512 1.64 274.376 1.64C275.293 1.64 276.131 1.8 276.888 2.12C277.645 2.42933 278.285 2.89333 278.808 3.512L277.464 4.776C277.059 4.33867 276.605 4.01333 276.104 3.8C275.603 3.576 275.059 3.464 274.472 3.464C273.885 3.464 273.347 3.56 272.856 3.752C272.376 3.944 271.955 4.216 271.592 4.568C271.24 4.92 270.963 5.336 270.76 5.816C270.568 6.296 270.472 6.824 270.472 7.4C270.472 7.976 270.568 8.504 270.76 8.984C270.963 9.464 271.24 9.88 271.592 10.232C271.955 10.584 272.376 10.856 272.856 11.048C273.347 11.24 273.885 11.336 274.472 11.336C275.059 11.336 275.603 11.2293 276.104 11.016C276.605 10.792 277.059 10.456 277.464 10.008L278.808 11.288C278.285 11.896 277.645 12.36 276.888 12.68C276.131 13 275.288 13.16 274.36 13.16ZM285.795 13V11.272L285.683 10.904V7.88C285.683 7.29333 285.507 6.84 285.155 6.52C284.803 6.18933 284.269 6.024 283.555 6.024C283.075 6.024 282.6 6.09867 282.131 6.248C281.672 6.39733 281.283 6.60533 280.963 6.872L280.179 5.416C280.637 5.064 281.181 4.80267 281.811 4.632C282.451 4.45067 283.112 4.36 283.795 4.36C285.032 4.36 285.987 4.65867 286.659 5.256C287.341 5.84267 287.683 6.75467 287.683 7.992V13H285.795ZM283.107 13.112C282.467 13.112 281.907 13.0053 281.427 12.792C280.947 12.568 280.573 12.264 280.307 11.88C280.051 11.4853 279.923 11.0427 279.923 10.552C279.923 10.072 280.035 9.64 280.259 9.256C280.493 8.872 280.872 8.568 281.395 8.344C281.917 8.12 282.611 8.008 283.475 8.008H285.955V9.336H283.619C282.936 9.336 282.477 9.448 282.243 9.672C282.008 9.88533 281.891 10.152 281.891 10.472C281.891 10.8347 282.035 11.1227 282.323 11.336C282.611 11.5493 283.011 11.656 283.523 11.656C284.013 11.656 284.451 11.544 284.835 11.32C285.229 11.096 285.512 10.7653 285.683 10.328L286.019 11.528C285.827 12.0293 285.48 12.4187 284.979 12.696C284.488 12.9733 283.864 13.112 283.107 13.112ZM290.25 13V4.456H292.154V6.808L291.93 6.12C292.186 5.544 292.586 5.10667 293.13 4.808C293.684 4.50933 294.372 4.36 295.194 4.36V6.264C295.108 6.24267 295.028 6.232 294.954 6.232C294.879 6.22133 294.804 6.216 294.73 6.216C293.972 6.216 293.37 6.44 292.922 6.888C292.474 7.32533 292.25 7.98133 292.25 8.856V13H290.25ZM300.828 13.112C299.879 13.112 299.047 12.9253 298.332 12.552C297.628 12.168 297.079 11.6453 296.684 10.984C296.3 10.3227 296.108 9.57067 296.108 8.728C296.108 7.87467 296.295 7.12267 296.668 6.472C297.052 5.81067 297.575 5.29333 298.236 4.92C298.908 4.54667 299.671 4.36 300.524 4.36C301.356 4.36 302.097 4.54133 302.748 4.904C303.399 5.26667 303.911 5.77867 304.284 6.44C304.657 7.10133 304.844 7.88 304.844 8.776C304.844 8.86133 304.839 8.95733 304.828 9.064C304.828 9.17067 304.823 9.272 304.812 9.368H297.692V8.04H303.756L302.972 8.456C302.983 7.96533 302.881 7.53333 302.668 7.16C302.455 6.78667 302.161 6.49333 301.788 6.28C301.425 6.06667 301.004 5.96 300.524 5.96C300.033 5.96 299.601 6.06667 299.228 6.28C298.865 6.49333 298.577 6.792 298.364 7.176C298.161 7.54933 298.06 7.992 298.06 8.504V8.824C298.06 9.336 298.177 9.78933 298.412 10.184C298.647 10.5787 298.977 10.8827 299.404 11.096C299.831 11.3093 300.321 11.416 300.876 11.416C301.356 11.416 301.788 11.3413 302.172 11.192C302.556 11.0427 302.897 10.808 303.196 10.488L304.268 11.72C303.884 12.168 303.399 12.5147 302.812 12.76C302.236 12.9947 301.575 13.112 300.828 13.112Z" fill="#070707"/>
</svg>
