<svg width="16" height="14" viewBox="0 0 16 14" fill="none" xmlns="http://www.w3.org/2000/svg">
<path d="M0 1.34668C0 1.21407 0.0526784 1.08689 0.146447 0.993126C0.240215 0.899358 0.367392 0.84668 0.5 0.84668H15.5C15.6326 0.84668 15.7598 0.899358 15.8536 0.993126C15.9473 1.08689 16 1.21407 16 1.34668C16 1.47929 15.9473 1.60646 15.8536 1.70023C15.7598 1.794 15.6326 1.84668 15.5 1.84668H0.5C0.367392 1.84668 0.240215 1.794 0.146447 1.70023C0.0526784 1.60646 0 1.47929 0 1.34668ZM15.5 6.5004H0.5C0.367392 6.5004 0.240215 6.55308 0.146447 6.64684C0.0526784 6.74061 0 6.86779 0 7.0004C0 7.13301 0.0526784 7.26018 0.146447 7.35395C0.240215 7.44772 0.367392 7.5004 0.5 7.5004H15.5C15.6326 7.5004 15.7598 7.44772 15.8536 7.35395C15.9473 7.26018 16 7.13301 16 7.0004C16 6.86779 15.9473 6.74061 15.8536 6.64684C15.7598 6.55308 15.6326 6.5004 15.5 6.5004ZM8 12.1541H0.5C0.367392 12.1541 0.240215 12.2068 0.146447 12.3006C0.0526784 12.3943 0 12.5215 0 12.6541C0 12.7867 0.0526784 12.9139 0.146447 13.0077C0.240215 13.1014 0.367392 13.1541 0.5 13.1541H8C8.13261 13.1541 8.25979 13.1014 8.35355 13.0077C8.44732 12.9139 8.5 12.7867 8.5 12.6541C8.5 12.5215 8.44732 12.3943 8.35355 12.3006C8.25979 12.2068 8.13261 12.1541 8 12.1541Z" fill="black"/>
</svg>
