<svg width="25" height="10" viewBox="0 0 25 10" fill="none" xmlns="http://www.w3.org/2000/svg">
<path d="M0.516691 5.03962H24.4846C24.7697 5.03962 25 4.80928 25 4.52418C25 4.23908 24.7697 4.00874 24.4846 4.00874H1.7618L4.88986 0.880674C5.0912 0.679331 5.0912 0.35235 4.88986 0.151007C4.68852 -0.0503357 4.36154 -0.0503357 4.16019 0.151007L0.151052 4.16015C0.00286484 4.30834 -0.0406265 4.52901 0.0399113 4.7223C0.120449 4.91398 0.308905 5.03962 0.516691 5.03962Z" fill="black"/>
<path d="M4.53068 9.05357C4.66276 9.05357 4.79484 9.00363 4.89471 8.90215C5.09605 8.70081 5.09605 8.37383 4.89471 8.17249L0.880733 4.15851C0.67939 3.95717 0.35241 3.95717 0.151068 4.15851C-0.0502753 4.35986 -0.0502753 4.68684 0.151068 4.88818L4.16504 8.90215C4.26652 9.00363 4.3986 9.05357 4.53068 9.05357Z" fill="black"/>
</svg>
