<svg width="20" height="19" viewBox="0 0 20 19" fill="none" xmlns="http://www.w3.org/2000/svg">
<path d="M19.1539 17.7004L14.922 13.4685C16.2208 11.9874 16.9375 10.1133 16.9375 8.125C16.9375 5.95463 16.0922 3.91439 14.5577 2.37984C13.0231 0.845296 10.9829 0 8.8125 0C6.64213 0 4.60189 0.845296 3.06734 2.37984C1.5328 3.91439 0.6875 5.95463 0.6875 8.125C0.6875 10.2954 1.5328 12.3356 3.06734 13.8702C4.60189 15.4047 6.64213 16.25 8.8125 16.25C10.8008 16.25 12.6749 15.5333 14.156 14.2345L18.3879 18.4664C18.4937 18.5722 18.6323 18.6251 18.7709 18.6251C18.9095 18.6251 19.0481 18.5722 19.1539 18.4664C19.3655 18.2548 19.3655 17.912 19.1539 17.7004ZM3.83329 13.1042C2.50346 11.7741 1.77083 10.0058 1.77083 8.125C1.77083 6.24424 2.50346 4.47589 3.83329 3.14579C5.16339 1.81596 6.93174 1.08333 8.8125 1.08333C10.6933 1.08333 12.4616 1.81596 13.7917 3.14579C15.1215 4.47589 15.8542 6.24424 15.8542 8.125C15.8542 10.0058 15.1215 11.7741 13.7917 13.1042C12.4616 14.434 10.6933 15.1667 8.8125 15.1667C6.93174 15.1667 5.16339 14.434 3.83329 13.1042Z" fill="black"/>
</svg>
