<svg width="25" height="10" viewBox="0 0 25 10" fill="none" xmlns="http://www.w3.org/2000/svg">
<path d="M24.4833 5.03962H0.515438C0.230336 5.03962 0 4.80928 0 4.52418C0 4.23908 0.230336 4.00874 0.515438 4.00874H23.2382L20.1101 0.880674C19.9088 0.679331 19.9088 0.35235 20.1101 0.151007C20.3115 -0.0503357 20.6385 -0.0503357 20.8398 0.151007L24.8489 4.16015C24.9971 4.30834 25.0406 4.52901 24.9601 4.7223C24.8796 4.91398 24.6911 5.03962 24.4833 5.03962Z" fill="black"/>
<path d="M20.4693 9.05363C20.3372 9.05363 20.2052 9.00369 20.1053 8.90222C19.9039 8.70087 19.9039 8.37389 20.1053 8.17255L24.1193 4.15858C24.3206 3.95723 24.6476 3.95723 24.8489 4.15858C25.0503 4.35992 25.0503 4.6869 24.8489 4.88824L20.835 8.90222C20.7335 9.00369 20.6014 9.05363 20.4693 9.05363Z" fill="black"/>
</svg>
