<svg width="26" height="26" viewBox="0 0 26 26" fill="none" xmlns="http://www.w3.org/2000/svg">
<mask id="path-1-outside-1_0_258" maskUnits="userSpaceOnUse" x="0" y="0" width="26" height="26" fill="black">
<rect fill="white" width="26" height="26"/>
<path fill-rule="evenodd" clip-rule="evenodd" d="M13.1094 1C10.7144 1 8.37315 1.7102 6.38177 3.0408C4.3904 4.37139 2.83831 6.26262 1.92178 8.47532C1.00525 10.688 0.765441 13.1228 1.23268 15.4718C1.69993 17.8208 2.85323 19.9785 4.54676 21.672C6.24029 23.3655 8.39797 24.5188 10.747 24.9861C13.0959 25.4533 15.5307 25.2135 17.7434 24.297C19.9561 23.3804 21.8474 21.8284 23.178 19.837C24.5086 17.8456 25.2188 15.5044 25.2188 13.1094C25.2151 9.89888 23.9382 6.82092 21.668 4.55076C19.3978 2.2806 16.3199 1.00363 13.1094 1ZM13.1094 24.4375C10.8689 24.4375 8.67871 23.7731 6.81581 22.5284C4.95291 21.2836 3.50096 19.5144 2.64356 17.4445C1.78616 15.3745 1.56182 13.0968 1.99892 10.8994C2.43602 8.70193 3.51492 6.68345 5.09919 5.09918C6.68345 3.51491 8.70193 2.43601 10.8994 1.99892C13.0968 1.56182 15.3745 1.78615 17.4445 2.64355C19.5144 3.50095 21.2836 4.95291 22.5284 6.81581C23.7731 8.67871 24.4375 10.8689 24.4375 13.1094C24.4341 16.1127 23.2395 18.9921 21.1158 21.1158C18.9921 23.2395 16.1127 24.4341 13.1094 24.4375ZM19.9046 18.5091C18.0546 16.9 15.578 16 13 16C10.422 16 7.9454 16.9 6.09538 18.5091C6.0352 18.5623 6.00092 18.6346 6.00002 18.7103C5.99912 18.786 6.03167 18.8589 6.09058 18.9132C6.14948 18.9675 6.22994 18.9987 6.31441 19C6.39887 19.0012 6.48048 18.9725 6.5414 18.9201C8.27202 17.4151 10.5886 16.5733 13 16.5733C15.4114 16.5733 17.728 17.4151 19.4586 18.9201C19.5195 18.9725 19.6011 19.0012 19.6856 19C19.7701 18.9987 19.8505 18.9675 19.9094 18.9132C19.9683 18.8589 20.0009 18.786 20 18.7103C19.9991 18.6346 19.9648 18.5623 19.9046 18.5091ZM15.7136 14.1006C14.9428 14.6157 14.0365 14.8906 13.1094 14.8906C11.8666 14.8892 10.6751 14.3949 9.79634 13.5162C8.91757 12.6374 8.42326 11.4459 8.42188 10.2031C8.42188 9.27603 8.69679 8.36975 9.21186 7.59889C9.72693 6.82804 10.459 6.22723 11.3155 5.87244C12.1721 5.51766 13.1146 5.42483 14.0239 5.6057C14.9331 5.78656 15.7684 6.23301 16.4239 6.88856C17.0795 7.54412 17.5259 8.37936 17.7068 9.28864C17.8877 10.1979 17.7948 11.1404 17.4401 11.997C17.0853 12.8535 16.4845 13.5856 15.7136 14.1006ZM15.2796 6.9552C14.6372 6.52597 13.882 6.29688 13.1094 6.29688C12.0737 6.29806 11.0808 6.70998 10.3485 7.44229C9.61623 8.1746 9.2043 9.16749 9.20313 10.2031C9.20313 10.9757 9.43222 11.7309 9.86145 12.3733C10.2907 13.0157 10.9007 13.5164 11.6145 13.812C12.3283 14.1077 13.1137 14.185 13.8714 14.0343C14.6292 13.8836 15.3252 13.5116 15.8715 12.9653C16.4178 12.419 16.7898 11.7229 16.9406 10.9652C17.0913 10.2075 17.0139 9.42204 16.7183 8.70827C16.4226 7.9945 15.922 7.38442 15.2796 6.9552Z"/>
</mask>
<path fill-rule="evenodd" clip-rule="evenodd" d="M13.1094 1C10.7144 1 8.37315 1.7102 6.38177 3.0408C4.3904 4.37139 2.83831 6.26262 1.92178 8.47532C1.00525 10.688 0.765441 13.1228 1.23268 15.4718C1.69993 17.8208 2.85323 19.9785 4.54676 21.672C6.24029 23.3655 8.39797 24.5188 10.747 24.9861C13.0959 25.4533 15.5307 25.2135 17.7434 24.297C19.9561 23.3804 21.8474 21.8284 23.178 19.837C24.5086 17.8456 25.2188 15.5044 25.2188 13.1094C25.2151 9.89888 23.9382 6.82092 21.668 4.55076C19.3978 2.2806 16.3199 1.00363 13.1094 1ZM13.1094 24.4375C10.8689 24.4375 8.67871 23.7731 6.81581 22.5284C4.95291 21.2836 3.50096 19.5144 2.64356 17.4445C1.78616 15.3745 1.56182 13.0968 1.99892 10.8994C2.43602 8.70193 3.51492 6.68345 5.09919 5.09918C6.68345 3.51491 8.70193 2.43601 10.8994 1.99892C13.0968 1.56182 15.3745 1.78615 17.4445 2.64355C19.5144 3.50095 21.2836 4.95291 22.5284 6.81581C23.7731 8.67871 24.4375 10.8689 24.4375 13.1094C24.4341 16.1127 23.2395 18.9921 21.1158 21.1158C18.9921 23.2395 16.1127 24.4341 13.1094 24.4375ZM19.9046 18.5091C18.0546 16.9 15.578 16 13 16C10.422 16 7.9454 16.9 6.09538 18.5091C6.0352 18.5623 6.00092 18.6346 6.00002 18.7103C5.99912 18.786 6.03167 18.8589 6.09058 18.9132C6.14948 18.9675 6.22994 18.9987 6.31441 19C6.39887 19.0012 6.48048 18.9725 6.5414 18.9201C8.27202 17.4151 10.5886 16.5733 13 16.5733C15.4114 16.5733 17.728 17.4151 19.4586 18.9201C19.5195 18.9725 19.6011 19.0012 19.6856 19C19.7701 18.9987 19.8505 18.9675 19.9094 18.9132C19.9683 18.8589 20.0009 18.786 20 18.7103C19.9991 18.6346 19.9648 18.5623 19.9046 18.5091ZM15.7136 14.1006C14.9428 14.6157 14.0365 14.8906 13.1094 14.8906C11.8666 14.8892 10.6751 14.3949 9.79634 13.5162C8.91757 12.6374 8.42326 11.4459 8.42188 10.2031C8.42188 9.27603 8.69679 8.36975 9.21186 7.59889C9.72693 6.82804 10.459 6.22723 11.3155 5.87244C12.1721 5.51766 13.1146 5.42483 14.0239 5.6057C14.9331 5.78656 15.7684 6.23301 16.4239 6.88856C17.0795 7.54412 17.5259 8.37936 17.7068 9.28864C17.8877 10.1979 17.7948 11.1404 17.4401 11.997C17.0853 12.8535 16.4845 13.5856 15.7136 14.1006ZM15.2796 6.9552C14.6372 6.52597 13.882 6.29688 13.1094 6.29688C12.0737 6.29806 11.0808 6.70998 10.3485 7.44229C9.61623 8.1746 9.2043 9.16749 9.20313 10.2031C9.20313 10.9757 9.43222 11.7309 9.86145 12.3733C10.2907 13.0157 10.9007 13.5164 11.6145 13.812C12.3283 14.1077 13.1137 14.185 13.8714 14.0343C14.6292 13.8836 15.3252 13.5116 15.8715 12.9653C16.4178 12.419 16.7898 11.7229 16.9406 10.9652C17.0913 10.2075 17.0139 9.42204 16.7183 8.70827C16.4226 7.9945 15.922 7.38442 15.2796 6.9552Z" fill="black"/>
<path d="M6.38177 3.0408L6.49289 3.20709L6.38177 3.0408ZM13.1094 1L13.1096 0.8H13.1094V1ZM1.92178 8.47532L2.10655 8.55185L1.92178 8.47532ZM1.23268 15.4718L1.42884 15.4328L1.23268 15.4718ZM4.54676 21.672L4.40534 21.8134H4.40534L4.54676 21.672ZM10.747 24.9861L10.786 24.7899H10.786L10.747 24.9861ZM17.7434 24.297L17.82 24.4818L17.7434 24.297ZM23.178 19.837L23.0117 19.7259L23.178 19.837ZM25.2188 13.1094H25.4188V13.1091L25.2188 13.1094ZM21.668 4.55076L21.5266 4.69218L21.668 4.55076ZM6.81581 22.5284L6.7047 22.6947L6.81581 22.5284ZM13.1094 24.4375V24.6375H13.1096L13.1094 24.4375ZM2.64356 17.4445L2.45878 17.521L2.64356 17.4445ZM5.09919 5.09918L4.95777 4.95776H4.95777L5.09919 5.09918ZM10.8994 1.99892L10.8604 1.80276L10.8994 1.99892ZM22.5284 6.81581L22.3621 6.92692L22.5284 6.81581ZM24.4375 13.1094L24.6375 13.1096V13.1094H24.4375ZM21.1158 21.1158L20.9744 20.9744V20.9744L21.1158 21.1158ZM19.9046 18.5091L20.037 18.3592L20.0359 18.3582L19.9046 18.5091ZM6.09538 18.5091L5.96412 18.3582L5.96301 18.3592L6.09538 18.5091ZM6.00002 18.7103L5.80003 18.7079V18.7079L6.00002 18.7103ZM6.09058 18.9132L6.2261 18.7661H6.2261L6.09058 18.9132ZM6.31441 19L6.31746 18.8H6.31745L6.31441 19ZM6.5414 18.9201L6.67189 19.0717L6.67265 19.071L6.5414 18.9201ZM19.4586 18.9201L19.3274 19.071L19.3281 19.0717L19.4586 18.9201ZM19.6856 19L19.6825 18.8H19.6825L19.6856 19ZM13.1094 14.8906L13.1092 15.0906H13.1094V14.8906ZM15.7136 14.1006L15.6025 13.9343H15.6025L15.7136 14.1006ZM9.79634 13.5162L9.93776 13.3747L9.79634 13.5162ZM8.42188 10.2031H8.22188V10.2034L8.42188 10.2031ZM11.3155 5.87244L11.239 5.68767L11.3155 5.87244ZM14.0239 5.6057L14.0629 5.40954L14.0239 5.6057ZM16.4239 6.88856L16.5654 6.74714L16.4239 6.88856ZM17.7068 9.28864L17.5106 9.32766L17.7068 9.28864ZM17.4401 11.997L17.6248 12.0735V12.0735L17.4401 11.997ZM13.1094 6.29688V6.09688L13.1091 6.09688L13.1094 6.29688ZM15.2796 6.9552L15.3907 6.78891V6.7889L15.2796 6.9552ZM10.3485 7.44229L10.2071 7.30087L10.3485 7.44229ZM9.20313 10.2031L9.00313 10.2029V10.2031H9.20313ZM11.6145 13.812L11.6911 13.6273L11.6145 13.812ZM13.8714 14.0343L13.9105 14.2305L13.8714 14.0343ZM6.49289 3.20709C8.45137 1.89847 10.7539 1.2 13.1094 1.2V0.8C10.6748 0.8 8.29492 1.52193 6.27066 2.8745L6.49289 3.20709ZM2.10655 8.55185C3.00795 6.3757 4.5344 4.51571 6.49289 3.20709L6.27066 2.8745C4.24639 4.22708 2.66867 6.14954 1.737 8.39878L2.10655 8.55185ZM1.42884 15.4328C0.969315 13.1226 1.20516 10.728 2.10655 8.55185L1.737 8.39878C0.805333 10.648 0.561567 13.123 1.03653 15.5108L1.42884 15.4328ZM4.68818 21.5306C3.02262 19.865 1.88837 17.743 1.42884 15.4328L1.03653 15.5108C1.51149 17.8986 2.68384 20.0919 4.40534 21.8134L4.68818 21.5306ZM10.786 24.7899C8.47578 24.3304 6.35374 23.1961 4.68818 21.5306L4.40534 21.8134C6.12684 23.5349 8.32016 24.7073 10.7079 25.1822L10.786 24.7899ZM17.6669 24.1122C15.4907 25.0136 13.0962 25.2494 10.786 24.7899L10.7079 25.1822C13.0957 25.6572 15.5707 25.4134 17.82 24.4818L17.6669 24.1122ZM23.0117 19.7259C21.703 21.6844 19.8431 23.2108 17.6669 24.1122L17.82 24.4818C20.0692 23.5501 21.9917 21.9724 23.3443 19.9481L23.0117 19.7259ZM25.0188 13.1094C25.0188 15.4648 24.3203 17.7674 23.0117 19.7259L23.3443 19.9481C24.6968 17.9238 25.4188 15.5439 25.4188 13.1094H25.0188ZM21.5266 4.69218C23.7593 6.92489 25.0152 9.95207 25.0188 13.1096L25.4188 13.1091C25.4151 9.84569 24.117 6.71695 21.8094 4.40934L21.5266 4.69218ZM13.1092 1.2C16.2667 1.20357 19.2939 2.45947 21.5266 4.69218L21.8094 4.40934C19.5018 2.10173 16.3731 0.803689 13.1096 0.8L13.1092 1.2ZM6.7047 22.6947C8.60049 23.9614 10.8293 24.6375 13.1094 24.6375V24.2375C10.9084 24.2375 8.75694 23.5848 6.92693 22.3621L6.7047 22.6947ZM2.45878 17.521C3.33132 19.6275 4.80891 21.4279 6.7047 22.6947L6.92693 22.3621C5.09691 21.1393 3.6706 19.4013 2.82833 17.3679L2.45878 17.521ZM1.80277 10.8603C1.35795 13.0966 1.58625 15.4145 2.45878 17.521L2.82833 17.3679C1.98607 15.3345 1.7657 13.097 2.19508 10.9384L1.80277 10.8603ZM4.95777 4.95776C3.34553 6.57 2.24758 8.62411 1.80277 10.8603L2.19508 10.9384C2.62446 8.77974 3.68431 6.7969 5.24061 5.2406L4.95777 4.95776ZM10.8604 1.80276C8.62412 2.24757 6.57 3.34552 4.95777 4.95776L5.24061 5.2406C6.7969 3.68431 8.77975 2.62445 10.9384 2.19507L10.8604 1.80276ZM17.521 2.45878C15.4145 1.58624 13.0966 1.35794 10.8604 1.80276L10.9384 2.19507C13.097 1.76569 15.3345 1.98607 17.3679 2.82833L17.521 2.45878ZM22.6947 6.70469C21.4279 4.8089 19.6275 3.33131 17.521 2.45878L17.3679 2.82833C19.4013 3.67059 21.1393 5.09691 22.3621 6.92692L22.6947 6.70469ZM24.6375 13.1094C24.6375 10.8293 23.9614 8.60048 22.6947 6.70469L22.3621 6.92692C23.5849 8.75693 24.2375 10.9084 24.2375 13.1094H24.6375ZM21.2572 21.2572C23.4184 19.0961 24.634 16.1659 24.6375 13.1096L24.2375 13.1091C24.2341 16.0595 23.0606 18.8881 20.9744 20.9744L21.2572 21.2572ZM13.1096 24.6375C16.1659 24.634 19.0961 23.4184 21.2572 21.2572L20.9744 20.9744C18.8881 23.0606 16.0595 24.2341 13.1092 24.2375L13.1096 24.6375ZM13 16.2C15.5325 16.2 17.9617 17.0843 19.7734 18.66L20.0359 18.3582C18.1475 16.7157 15.6235 15.8 13 15.8V16.2ZM6.22663 18.66C8.03827 17.0843 10.4675 16.2 13 16.2V15.8C10.3765 15.8 7.85253 16.7157 5.96412 18.3582L6.22663 18.66ZM6.2 18.7127C6.20019 18.6972 6.20707 18.6773 6.22775 18.659L5.96301 18.3592C5.86333 18.4472 5.80165 18.5719 5.80003 18.7079L6.2 18.7127ZM6.2261 18.7661C6.20618 18.7478 6.19982 18.7281 6.2 18.7127L5.80003 18.7079C5.79842 18.8439 5.85717 18.9701 5.95505 19.0603L6.2261 18.7661ZM6.31745 18.8C6.27921 18.7994 6.24674 18.7852 6.2261 18.7661L5.95505 19.0603C6.05222 19.1498 6.18068 19.1979 6.31137 19.1999L6.31745 18.8ZM6.41092 18.7685C6.38909 18.7873 6.35571 18.8006 6.31746 18.8L6.31136 19.1999C6.44204 19.2019 6.57186 19.1578 6.67189 19.0717L6.41092 18.7685ZM13 16.3733C10.5431 16.3733 8.17916 17.2308 6.41016 18.7692L6.67265 19.071C8.36487 17.5994 10.6341 16.7733 13 16.7733V16.3733ZM19.5898 18.7692C17.8208 17.2308 15.4569 16.3733 13 16.3733V16.7733C15.3659 16.7733 17.6351 17.5994 19.3274 19.071L19.5898 18.7692ZM19.6825 18.8C19.6443 18.8006 19.6109 18.7873 19.5891 18.7685L19.3281 19.0717C19.4281 19.1578 19.558 19.2019 19.6886 19.1999L19.6825 18.8ZM19.7739 18.7661C19.7533 18.7852 19.7208 18.7994 19.6825 18.8L19.6886 19.1999C19.8193 19.1979 19.9478 19.1498 20.0449 19.0603L19.7739 18.7661ZM19.8 18.7127C19.8002 18.7281 19.7938 18.7478 19.7739 18.7661L20.0449 19.0603C20.1428 18.9701 20.2016 18.8439 20.2 18.7079L19.8 18.7127ZM19.7722 18.659C19.7929 18.6773 19.7998 18.6972 19.8 18.7127L20.2 18.7079C20.1984 18.5719 20.1367 18.4472 20.037 18.3592L19.7722 18.659ZM13.1094 15.0906C14.076 15.0906 15.021 14.804 15.8247 14.2669L15.6025 13.9343C14.8645 14.4274 13.9969 14.6906 13.1094 14.6906V15.0906ZM9.65492 13.6576C10.5712 14.5738 11.8134 15.0892 13.1092 15.0906L13.1096 14.6906C11.9198 14.6893 10.7791 14.2161 9.93776 13.3747L9.65492 13.6576ZM8.22188 10.2034C8.22332 11.4991 8.73869 12.7414 9.65492 13.6576L9.93776 13.3747C9.09644 12.5334 8.6232 11.3927 8.62188 10.2029L8.22188 10.2034ZM9.04557 7.48778C8.50852 8.29152 8.22188 9.23647 8.22188 10.2031H8.62188C8.62188 9.31558 8.88506 8.44797 9.37816 7.71001L9.04557 7.48778ZM11.239 5.68767C10.3459 6.05759 9.58261 6.68403 9.04557 7.48778L9.37816 7.71001C9.87125 6.97204 10.5721 6.39687 11.3921 6.05722L11.239 5.68767ZM14.0629 5.40954C13.1148 5.22095 12.1321 5.31774 11.239 5.68767L11.3921 6.05722C12.2121 5.71757 13.1144 5.6287 13.9848 5.80185L14.0629 5.40954ZM16.5654 6.74714C15.8818 6.06361 15.011 5.59812 14.0629 5.40954L13.9848 5.80185C14.8553 5.975 15.6549 6.4024 16.2825 7.02999L16.5654 6.74714ZM17.903 9.24962C17.7144 8.30154 17.2489 7.43067 16.5654 6.74714L16.2825 7.02999C16.9101 7.65757 17.3375 8.45717 17.5106 9.32766L17.903 9.24962ZM17.6248 12.0735C17.9948 11.1804 18.0915 10.1977 17.903 9.24962L17.5106 9.32766C17.6838 10.1981 17.5949 11.1004 17.2553 11.9204L17.6248 12.0735ZM15.8247 14.2669C16.6285 13.7299 17.2549 12.9666 17.6248 12.0735L17.2553 11.9204C16.9156 12.7404 16.3405 13.4413 15.6025 13.9343L15.8247 14.2669ZM13.1094 6.49688C13.8424 6.49688 14.559 6.71424 15.1685 7.12149L15.3907 6.7889C14.7154 6.3377 13.9215 6.09688 13.1094 6.09688V6.49688ZM10.49 7.58371C11.1848 6.88886 12.1269 6.498 13.1096 6.49688L13.1091 6.09688C12.0205 6.09812 10.9769 6.53111 10.2071 7.30087L10.49 7.58371ZM9.40312 10.2034C9.40424 9.22068 9.7951 8.27857 10.49 7.58371L10.2071 7.30087C9.43736 8.07063 9.00436 9.1143 9.00313 10.2029L9.40312 10.2034ZM10.0277 12.2622C9.62049 11.6527 9.40312 10.9362 9.40312 10.2031H9.00313C9.00313 11.0153 9.24395 11.8092 9.69515 12.4844L10.0277 12.2622ZM11.6911 13.6273C11.0138 13.3467 10.435 12.8717 10.0277 12.2622L9.69515 12.4844C10.1464 13.1597 10.7877 13.686 11.538 13.9968L11.6911 13.6273ZM13.8324 13.8382C13.1135 13.9812 12.3683 13.9078 11.6911 13.6273L11.538 13.9968C12.2883 14.3076 13.1139 14.3889 13.9105 14.2305L13.8324 13.8382ZM15.7301 12.8238C15.2118 13.3422 14.5514 13.6952 13.8324 13.8382L13.9105 14.2305C14.707 14.072 15.4387 13.681 16.0129 13.1067L15.7301 12.8238ZM16.7444 10.9262C16.6014 11.6451 16.2484 12.3055 15.7301 12.8238L16.0129 13.1067C16.5872 12.5324 16.9783 11.8008 17.1367 11.0042L16.7444 10.9262ZM16.5335 8.78481C16.814 9.46204 16.8874 10.2072 16.7444 10.9262L17.1367 11.0042C17.2952 10.2077 17.2138 9.38205 16.9031 8.63173L16.5335 8.78481ZM15.1685 7.12149C15.7779 7.52874 16.253 8.10758 16.5335 8.78481L16.9031 8.63173C16.5923 7.88141 16.066 7.24011 15.3907 6.78891L15.1685 7.12149Z" fill="black" mask="url(#path-1-outside-1_0_258)"/>
</svg>
